HIERARCHY
ROOT hip
{
  OFFSET 0 0 0
  CHANNELS 6 Xposition Yposition Zposition Zrotation Yrotation Xrotation
  JOINT abdomen
  {
    OFFSET 0 20.6881 -0.73152
    CHANNELS 3 Zrotation Xrotation Yrotation
    JOINT chest
    {
      OFFSET 0 11.7043 -0.48768
      CHANNELS 3 Zrotation Xrotation Yrotation
      JOINT neck
      {
        OFFSET 0 22.1894 -2.19456
        CHANNELS 3 Zrotation Xrotation Yrotation
        JOINT head
        {
          OFFSET -0.24384 7.07133 1.2192
          CHANNELS 3 Zrotation Xrotation Yrotation
          JOINT leftEye
          {
            OFFSET 4.14528 8.04674 8.04672
            CHANNELS 3 Zrotation Xrotation Yrotation
            End Site
            {
              OFFSET 1 0 0
            }
          }
          JOINT rightEye
          {
            OFFSET -3.6576 8.04674 8.04672
            CHANNELS 3 Zrotation Xrotation Yrotation
            End Site
            {
              OFFSET 1 0 0
            }
          }
        }
      }
      JOINT rCollar
      {
        OFFSET -2.68224 19.2634 -4.8768
        CHANNELS 3 Zrotation Xrotation Yrotation
        JOINT rShldr
        {
          OFFSET -8.77824 -1.95073 1.46304
          CHANNELS 3 Zrotation Xrotation Yrotation
          JOINT rForeArm
          {
            OFFSET -28.1742 -1.7115 0.48768
            CHANNELS 3 Zrotation Xrotation Yrotation
            JOINT rHand
            {
              OFFSET -22.5879 0.773209 7.07136
              CHANNELS 3 Zrotation Xrotation Yrotation
              JOINT rThumb1
              {
                OFFSET -1.2192 -0.487915 3.41376
                CHANNELS 3 Zrotation Xrotation Yrotation
                JOINT rThumb2
                {
                  OFFSET -3.37035 -0.52449 3.41376
                  CHANNELS 3 Zrotation Xrotation Yrotation
                  End Site
                  {
                    OFFSET -1.78271 -1.18214 1.43049
                  }
                }
              }
              JOINT rIndex1
              {
                OFFSET -7.75947 0.938293 5.60832
                CHANNELS 3 Zrotation Xrotation Yrotation
                JOINT rIndex2
                {
                  OFFSET -2.54057 -0.884171 1.56538
                  CHANNELS 3 Zrotation Xrotation Yrotation
                  End Site
                  {
                    OFFSET -1.62519 -0.234802 1.16502
                  }
                }
              }
              JOINT rMid1
              {
                OFFSET -8.24714 1.18213 3.41376
                CHANNELS 3 Zrotation Xrotation Yrotation
                JOINT rMid2
                {
                  OFFSET -3.10165 -0.590103 1.0647
                  CHANNELS 3 Zrotation Xrotation Yrotation
                  End Site
                  {
                    OFFSET -2.48547 -0.328903 0.83742
                  }
                }
              }
              JOINT rRing1
              {
                OFFSET -8.82822 0.546677 1.51678
                CHANNELS 3 Zrotation Xrotation Yrotation
                JOINT rRing2
                {
                  OFFSET -2.60934 -0.819778 -0.0198488
                  CHANNELS 3 Zrotation Xrotation Yrotation
                  End Site
                  {
                    OFFSET -2.33842 -0.294052 0.168128
                  }
                }
              }
              JOINT rPinky1
              {
                OFFSET -8.27202 -0.0477905 -0.4584
                CHANNELS 3 Zrotation Xrotation Yrotation
                JOINT rPinky2
                {
                  OFFSET -1.82734 -0.647385 -0.700984
                  CHANNELS 3 Zrotation Xrotation Yrotation
                  End Site
                  {
                    OFFSET -1.69225 -0.51767 -0.607171
                  }
                }
              }
            }
          }
        }
      }
      JOINT lCollar
      {
        OFFSET 2.68224 19.2634 -4.8768
        CHANNELS 3 Zrotation Xrotation Yrotation
        JOINT lShldr
        {
          OFFSET 8.77824 -1.95073 1.46304
          CHANNELS 3 Zrotation Xrotation Yrotation
          JOINT lForeArm
          {
            OFFSET 28.1742 -1.7115 0.48768
            CHANNELS 3 Zrotation Xrotation Yrotation
            JOINT lHand
            {
              OFFSET 22.5879 0.773209 7.07136
              CHANNELS 3 Zrotation Xrotation Yrotation
              JOINT lThumb1
              {
                OFFSET 1.2192 -0.487915 3.41376
                CHANNELS 3 Zrotation Xrotation Yrotation
                JOINT lThumb2
                {
                  OFFSET 3.37035 -0.52449 3.41376
                  CHANNELS 3 Zrotation Xrotation Yrotation
                  End Site
                  {
                    OFFSET 1.78271 -1.18214 1.43049
                  }
                }
              }
              JOINT lIndex1
              {
                OFFSET 7.75947 0.938293 5.60832
                CHANNELS 3 Zrotation Xrotation Yrotation
                JOINT lIndex2
                {
                  OFFSET 2.54057 -0.884171 1.56538
                  CHANNELS 3 Zrotation Xrotation Yrotation
                  End Site
                  {
                    OFFSET 1.62519 -0.234802 1.16502
                  }
                }
              }
              JOINT lMid1
              {
                OFFSET 8.24714 1.18213 3.41376
                CHANNELS 3 Zrotation Xrotation Yrotation
                JOINT lMid2
                {
                  OFFSET 3.10165 -0.590103 1.0647
                  CHANNELS 3 Zrotation Xrotation Yrotation
                  End Site
                  {
                    OFFSET 2.48547 -0.328903 0.83742
                  }
                }
              }
              JOINT lRing1
              {
                OFFSET 8.82822 0.546677 1.51678
                CHANNELS 3 Zrotation Xrotation Yrotation
                JOINT lRing2
                {
                  OFFSET 2.60934 -0.819778 -0.0198488
                  CHANNELS 3 Zrotation Xrotation Yrotation
                  End Site
                  {
                    OFFSET 2.33842 -0.294052 0.168128
                  }
                }
              }
              JOINT lPinky1
              {
                OFFSET 8.27202 -0.0477905 -0.4584
                CHANNELS 3 Zrotation Xrotation Yrotation
                JOINT lPinky2
                {
                  OFFSET 1.82734 -0.647385 -0.700984
                  CHANNELS 3 Zrotation Xrotation Yrotation
                  End Site
                  {
                    OFFSET 1.69225 -0.51767 -0.607171
                  }
                }
              }
            }
          }
        }
      }
    }
  }
  JOINT rButtock
  {
    OFFSET -8.77824 4.35084 1.2192
    CHANNELS 3 Zrotation Xrotation Yrotation
    JOINT rThigh
    {
      OFFSET 0 -1.70687 -2.19456
      CHANNELS 3 Zrotation Xrotation Yrotation
      JOINT rShin
      {
        OFFSET 0 -36.8199 0.73152
        CHANNELS 3 Zrotation Xrotation Yrotation
        JOINT rFoot
        {
          OFFSET 0.73152 -45.1104 -5.12064
          CHANNELS 3 Zrotation Xrotation Yrotation
          End Site
          {
            OFFSET -1.1221 -3.69964 12.103
          }
        }
      }
    }
  }
  JOINT lButtock
  {
    OFFSET 8.77824 4.35084 1.2192
    CHANNELS 3 Zrotation Xrotation Yrotation
    JOINT lThigh
    {
      OFFSET 0 -1.70687 -2.19456
      CHANNELS 3 Zrotation Xrotation Yrotation
      JOINT lShin
      {
        OFFSET 0 -36.8199 0.73152
        CHANNELS 3 Zrotation Xrotation Yrotation
        JOINT lFoot
        {
          OFFSET -0.73152 -45.1104 -5.12064
          CHANNELS 3 Zrotation Xrotation Yrotation
          End Site
          {
            OFFSET 1.1221 -3.69964 12.103
          }
        }
      }
    }
  }
}
MOTION
Frames:	4
Frame Time:	0.03333
0.0 0.0 0.0 0.0 0.0 0.0 0.0 0.0 0.0 0.0 0.0 0.0 0.0 0.0 0.0 0.0 0.0 0.0 0.0 0.0 0.0 0.0 0.0 0.0 0.0 0.0 0.0 0.0 0.0 0.0 0.0 0.0 0.0 0.0 0.0 0.0 0.0 0.0 0.0 0.0 0.0 0.0 0.0 0.0 0.0 0.0 0.0 0.0 0.0 0.0 0.0 0.0 0.0 0.0 0.0 0.0 0.0 0.0 0.0 0.0 0.0 0.0 0.0 0.0 0.0 0.0 0.0 0.0 0.0 0.0 0.0 0.0 0.0 0.0 0.0 0.0 0.0 0.0 0.0 0.0 0.0 0.0 0.0 0.0 0.0 0.0 0.0 0.0 0.0 0.0 0.0 0.0 0.0 0.0 0.0 0.0 0.0 0.0 0.0 0.0 0.0 0.0 0.0 0.0 0.0 0.0 0.0 0.0 0.0 0.0 0.0 0.0 0.0 0.0 0.0 0.0 0.0 0.0 0.0 0.0 0.0 0.0 0.0 0.0 0.0 0.0 0.0 0.0 0.0 0.0 0.0 0.0
0.0819 14.8471 -0.0014 -0.156516 -7.012447 -1.275168 -1.055211 2.252237 27.491782 -8.946609 2.834782 63.535584 -172.745629 2.951901 76.002618 129.999004 -15.527224 -40.765428 -35.987268 -11.500476 34.450694 -35.45804 -11.076771 33.745294 -89.650271 36.208473 -16.636074 24.919132 -56.807773 -161.500065 -2.337954 2.319288 168.467864 151.250278 -54.053152 -11.409364 24.177932 80.284851 -68.654111 -171.662868 -43.410447 103.779548 -12.284519 13.108987 -42.876073 -166.211157 -26.820373 113.785415 -165.288962 0.159581 174.512442 -161.366076 -6.817335 146.135478 -90.198074 86.329864 90.565455 -143.400111 -75.872406 -163.812775 -166.759547 38.009638 -155.148388 -157.705555 36.626221 -146.408749 71.477558 -82.480944 172.890714 162.038724 9.659605 -169.776627 131.766717 89.233966 62.07952 11.845095 14.514133 174.753554 12.489702 3.383802 29.030018 -173.736341 -58.940903 -105.655333 19.887101 -20.138137 23.360335 -26.797387 -23.654129 8.547519 8.844837 -28.727979 6.10206 83.154625 69.407885 -74.725611 174.064729 -75.592451 172.68716 122.995063 -80.850983 139.809277 27.013381 12.407434 -39.010449 160.103088 58.552834 149.915668 -50.034513 -19.683722 -66.450029 7.901202 54.482179 21.129492 2.731001 -6.270731 36.604863 75.797744 34.90606 -82.698532 -44.073055 -0.645027 -94.472577 -9.221434 41.75994 118.920553 -8.777048 -2.250079 -96.153832 -57.537629 10.672801 -153.053912
-0.0484 27.1051 -0.1293 51.60971 -84.811962 -46.440818 -14.829113 29.042601 -0.0 4.581417 -54.457934 8.529282 173.042402 49.424339 -14.998101 -82.994448 80.47971 -137.760248 -54.566408 -3.305648 6.404288 -54.602104 -8.173707 15.762297 27.181075 35.794558 -13.018423 -88.369982 56.257937 130.897426 -175.879612 -23.917964 -90.291752 22.142289 12.129344 -7.30971 7.891386 38.617876 10.932429 -3.579071 -61.415867 -30.138956 11.507452 49.336313 15.0117 70.451126 34.624913 18.736986 -74.107733 82.22765 159.427395 -175.629126 -1.145362 167.414038 63.036172 15.239365 -13.482543 36.946782 -23.114198 6.020684 -11.70505 -34.450383 -90.56556 -146.87192 13.350715 -131.57756 138.85473 10.370865 -164.57723 -74.685719 -55.314371 -107.526013 -55.895429 46.612386 -139.324092 137.091249 78.179186 -82.415601 -17.700849 -0.998716 23.741666 -11.720637 51.829491 7.187651 28.352473 -41.825905 119.149098 88.69225 80.603653 -37.26754 7.32392 -28.557209 100.955355 163.615925 2.948028 -133.545054 64.716526 -39.121691 102.889499 6.893143 11.340317 15.056424 -52.971757 12.520645 34.99185 -8.145991 -14.028169 16.276058 66.450256 55.787026 49.098073 -108.67451 -23.426321 82.346852 73.01416 -44.178536 -11.087205 128.293244 52.559184 134.690661 -77.757417 57.824637 -47.818797 74.217479 -9.065099 -92.549817 -58.836383 -38.399116 113.758115 47.617988 24.008537 69.806473
-0.3157 25.7025 -0.0336 134.848187 -83.899954 -130.38853 -18.725326 31.388017 -101.69151 42.862952 16.294943 105.930768 -166.886241 51.954886 60.642001 26.807338 30.232506 66.97913 -8.097691 2.55865 -35.020872 -18.121993 4.659295 -28.621954 46.496038 10.664273 -16.617866 -128.866175 20.288966 167.282167 -171.125243 0.216539 -80.625943 31.223361 30.485798 -10.830358 -108.900863 -21.50164 107.93924 153.387334 -70.892459 47.443541 -85.690399 9.464385 129.221841 -95.063321 22.232139 37.140605 -69.725974 -48.822793 -178.614672 19.200738 -14.967351 -16.361355 66.75671 3.959269 -14.344894 -162.481768 -29.267186 166.036213 -83.804808 59.756023 -165.159494 -150.871601 66.619815 179.705954 -30.307507 -42.023454 16.545245 113.387304 -39.88576 137.609265 3.641075 25.234823 155.982077 -166.725162 5.910185 -111.840929 109.405084 69.981875 -105.261039 84.342281 12.81709 -42.046059 -10.314363 77.142693 -3.040655 120.183705 -56.36935 -101.62505 104.327782 -3.527476 147.357172 170.503779 -25.7838 -147.370019 108.924323 -12.990408 134.065338 -4.936813 0.028324 5.579352 73.604213 -6.968183 87.648989 157.341449 7.482777 134.003471 57.725268 53.845725 48.471951 -107.665477 -28.105068 149.555747 -21.074735 -67.053044 84.634668 -24.819689 -39.034479 27.227938 8.200977 0.971989 -10.81698 -45.855942 -14.672017 -95.210893 -57.196798 18.464648 111.26052 126.752834 49.562217 -7.016833
